<svg width="60" height="60" viewBox="0 0 120 120" fill="none" xmlns="http://www.w3.org/2000/svg">
  <line x1="5" y1="28" x2="22" y2="28" stroke="#C49A1A" stroke-width="5" stroke-linecap="round"/>
  <line x1="22" y1="28" x2="32" y2="48" stroke="#C49A1A" stroke-width="5" stroke-linecap="round"/>
  <path d="M28 48 L98 48 Q100 48 99 52 L89 82 Q88 85 85 85 L39 85 Q36 85 35 82 L27 52 Q26 48 28 48 Z" stroke="#C49A1A" stroke-width="4.5" stroke-linejoin="round" fill="none"/>
  <line x1="42" y1="85" x2="46" y2="93" stroke="#C49A1A" stroke-width="3.5" stroke-linecap="round"/>
  <line x1="82" y1="85" x2="78" y2="93" stroke="#C49A1A" stroke-width="3.5" stroke-linecap="round"/>
  <circle cx="46" cy="100" r="8" stroke="#C49A1A" stroke-width="4" fill="none"/>
  <circle cx="78" cy="100" r="8" stroke="#C49A1A" stroke-width="4" fill="none"/>
  <rect x="45" y="64" width="14" height="17" rx="2" fill="#009000"/>
  <path d="M48 64 Q48 58 52 58 Q56 58 56 64" stroke="#009000" stroke-width="2" fill="none"/>
  <rect x="57" y="68" width="11" height="13" rx="1.5" fill="#C49A1A"/>
  <path d="M59.5 68 Q59.5 63.5 62.5 63.5 Q65.5 63.5 65.5 68" stroke="#C49A1A" stroke-width="1.5" fill="none"/>
  <g transform="translate(64.5, 60) scale(1.3)">
    <defs><radialGradient id="g" cx="40%" cy="35%" r="70%"><stop offset="0%" stop-color="#009000" stop-opacity="0.5"/><stop offset="60%" stop-color="#009000"/><stop offset="100%" stop-color="#009000"/></radialGradient></defs>
    <circle cx="9" cy="9" r="8" fill="url(#g)"/>
    <path d="M5,6 L8,5 L10,6 L9,7 L8,8 L6,8 Z" fill="#C49A1A"/>
    <path d="M8,9 L9,10 L8,12 L7,13 L6,12 L6,10 Z" fill="#C49A1A"/>
    <path d="M12,7 L13,8 L13,10 L12,11 L11,10 L11,8 Z" fill="#C49A1A"/>
  </g>
  <text x="62" y="56" text-anchor="middle" dominant-baseline="auto" fill="#C49A1A" font-family="'Poppins', sans-serif" font-weight="800" font-size="62" transform="rotate(-30, 62, 56)">G</text>
  <text x="97" y="56" text-anchor="middle" dominant-baseline="auto" fill="#009000" font-family="'Poppins', sans-serif" font-weight="800" font-size="62" transform="rotate(-30, 97, 56)">C</text>
</svg>